{"glyphs":{":":{"x_min":0,"x_max":248,"ha":248,"o":"m 231 438 q 231 393 194 357 q 158 321 113 321 q 82 321 61 338 q 40 356 40 386 q 40 428 76 466 q 113 503 154 503 q 231 503 231 438 z m 231 118 q 231 73 194 37 q 158 1 113 1 q 82 1 61 18 q 40 36 40 66 q 40 108 76 146 q 113 183 154 183 q 231 183 231 118 z"},"$":{"x_min":0,"x_max":556,"ha":556,"o":"m 249 -103 l 249 -15 q 183 -7 142 14 q 101 36 71 83 q 41 130 36 199 l 124 215 q 134 145 160 111 q 197 64 249 59 l 249 339 q 195 349 138 381 q 96 404 74 446 q 51 487 51 540 q 51 634 117 692 q 162 731 249 740 l 249 782 l 301 782 l 301 740 q 377 732 422 695 q 480 647 492 563 l 401 550 q 393 602 368 630 q 344 657 301 666 l 301 412 q 367 396 389 386 q 430 368 456 342 q 481 316 495 280 q 509 245 509 204 q 509 112 451 51 q 393 -10 301 -14 l 301 -103 z m 249 667 q 198 659 168 626 q 139 592 139 547 q 139 502 164 472 q 189 441 249 423 z m 301 59 q 352 65 386 104 q 419 142 419 198 q 419 246 396 275 q 372 304 301 327 z"},"?":{"x_min":0,"x_max":470,"ha":470,"o":"m 455 599 q 455 538 378 470 q 315 422 251 374 q 233 361 216 348 q 191 328 191 315 q 191 297 236 228 q 89 281 89 363 q 89 408 144 451 q 194 486 245 521 q 299 562 299 599 q 299 655 209 655 q 166 655 123 638 q 75 619 53 587 q 53 707 18 772 q 121 803 215 803 q 319 803 383 754 q 455 700 455 599 z m 294 118 q 294 73 258 37 q 221 1 176 1 q 145 1 124 18 q 103 36 103 66 q 103 108 139 146 q 175 183 217 183 q 294 183 294 118 z"},"<":{"x_min":0,"x_max":583,"ha":583,"o":"m 55 313 l 55 395 l 529 595 l 529 508 l 153 354 l 529 198 l 529 110 z"},"'":{"x_min":0,"x_max":181,"ha":181,"o":"m 166 625 q 166 576 90 517 q 94 529 94 541 q 94 566 66 608 q 38 651 38 678 q 38 703 72 737 q 105 771 101 798 q 146 773 146 758 q 146 752 134 736 q 123 720 123 706 q 123 689 144 666 q 166 643 166 625 z"},"=":{"x_min":0,"x_max":638,"ha":638,"o":"m 600 532 q 600 511 546 487 q 493 463 493 457 q 493 449 506 449 q 510 449 532 463 q 553 477 576 477 q 554 467 547 454 q 540 441 528 435 q 481 413 425 413 q 361 413 281 443 q 213 473 145 502 q 129 509 111 509 q 70 509 31 478 l 31 482 q 29 508 75 528 q 113 545 144 545 q 167 545 195 536 q 220 526 245 516 q 316 490 376 490 q 404 490 432 498 q 470 509 470 529 q 470 550 425 554 q 462 564 472 564 q 496 564 506 543 q 516 522 523 522 q 542 522 542 535 q 542 540 534 550 q 526 560 526 566 q 526 580 561 590 q 550 581 550 574 q 550 568 575 560 q 600 551 600 532 z m 602 334 q 602 311 540 286 q 478 260 478 254 q 478 246 489 246 q 494 246 518 260 q 543 275 566 275 q 545 266 537 258 q 533 249 509 232 q 457 210 401 210 q 339 210 266 241 q 203 271 141 300 q 125 307 108 307 q 67 307 21 276 q 24 304 74 325 q 116 344 148 344 q 171 344 197 334 q 220 324 243 314 q 308 288 369 288 q 397 288 429 297 q 472 308 472 329 q 472 348 431 351 q 470 361 480 361 q 504 361 510 340 q 516 319 522 319 q 545 319 545 334 q 545 338 540 347 q 535 356 535 361 q 535 376 575 387 q 561 377 561 370 q 561 365 582 358 q 602 350 602 334 z"},"a":{"x_min":0,"x_max":490,"ha":490,"o":"m 471 0 l 218 0 q 140 0 93 42 q 43 86 43 162 q 43 218 70 268 q 97 317 153 339 q 197 352 240 364 q 280 377 280 409 q 280 438 264 460 q 248 482 219 482 q 177 482 131 442 q 93 408 70 365 q 71 384 71 403 q 71 518 27 600 l 244 600 q 343 600 377 492 q 397 431 397 302 q 397 64 471 0 z m 277 302 q 231 289 203 260 q 172 228 172 183 q 172 159 183 139 q 196 114 218 114 q 257 114 270 151 q 278 173 278 221 q 278 235 277 261 q 277 289 277 302 z"},"L":{"x_min":0,"x_max":538,"ha":538,"o":"m 520 0 l 6 0 q 93 58 138 195 q 174 306 174 433 q 174 524 166 574 q 153 652 116 704 q 91 736 39 799 l 357 799 q 345 777 321 638 q 291 470 291 350 q 291 171 358 171 q 417 171 499 288 q 493 254 493 205 q 493 64 520 0 z"},"3":{"x_min":0,"x_max":619,"ha":619,"o":"m 590 276 q 590 192 567 140 q 507 1 236 1 l 55 1 q 107 42 159 214 q 237 128 306 128 q 349 128 387 181 q 422 230 422 276 q 422 317 402 343 q 380 373 341 373 q 319 373 286 360 q 252 348 232 348 q 192 348 170 381 q 150 411 150 453 q 150 461 151 470 q 199 434 265 434 q 336 434 382 476 q 428 518 428 588 q 428 634 410 670 q 388 714 346 714 q 235 714 135 581 q 135 675 43 800 l 364 800 q 443 800 501 765 q 570 723 570 649 q 570 550 422 433 q 427 433 433 433 q 503 433 546 390 q 590 346 590 276 z"},";":{"x_min":0,"x_max":271,"ha":271,"o":"m 242 438 q 242 393 206 357 q 170 321 124 321 q 94 321 72 338 q 51 356 51 386 q 51 428 88 466 q 124 503 165 503 q 242 503 242 438 z m 247 71 q 247 2 196 -35 q 190 -40 103 -82 q 53 -106 54 -142 q 36 -112 36 -91 q 36 -63 75 -44 q 114 -25 114 -13 q 114 -11 113 -8 q 86 -8 68 14 q 51 36 51 64 q 51 107 87 145 q 123 183 165 183 q 215 183 234 149 q 247 124 247 71 z"},"J":{"x_min":0,"x_max":501,"ha":501,"o":"m 486 799 q 458 768 407 702 q 371 650 359 573 q 351 523 351 433 q 351 394 360 317 q 368 240 368 201 q 368 102 329 54 q 287 0 190 0 l 5 0 q 32 64 32 205 q 32 254 26 288 q 108 171 167 171 q 234 171 234 350 q 234 470 205 638 q 180 778 168 799 z"},"V":{"x_min":0,"x_max":617,"ha":617,"o":"m 552 799 q 602 700 602 612 q 602 521 542 421 q 486 338 430 256 q 370 158 370 71 q 370 36 378 0 l 174 0 q 251 165 251 330 q 251 366 247 394 q 236 457 178 514 q 85 606 76 618 q 22 691 17 799 l 259 799 q 247 775 247 750 q 247 707 290 646 q 351 562 357 548 q 373 515 373 444 q 373 368 356 301 q 453 439 453 527 q 453 584 398 664 q 338 752 331 799 z"},"\"":{"x_min":0,"x_max":331,"ha":331,"o":"m 316 625 q 316 598 279 564 q 272 558 220 517 q 225 533 225 548 q 225 571 206 612 q 188 654 188 678 q 188 704 226 738 q 264 771 261 798 q 302 775 302 760 q 302 754 288 738 q 273 721 273 705 q 273 688 294 666 q 316 643 316 625 z m 166 625 q 166 560 110 517 q 113 527 113 536 q 113 564 76 607 q 38 650 38 678 q 38 703 66 737 q 94 771 91 798 q 139 771 139 755 q 139 750 130 734 q 122 719 122 706 q 122 689 144 666 q 166 643 166 625 z"},"7":{"x_min":0,"x_max":473,"ha":473,"o":"m 520 800 q 489 764 434 674 q 352 539 296 412 q 220 238 220 133 q 220 27 298 0 l -9 0 q 11 23 47 96 q 102 205 148 329 q 208 490 208 569 q 208 629 168 629 q 109 629 27 512 q 33 546 33 595 q 33 736 6 800 z"},"S":{"x_min":0,"x_max":498,"ha":498,"o":"m 483 202 q 483 94 400 40 q 330 -7 218 -7 q 109 -7 37 30 q 59 133 59 241 q 59 267 57 288 q 78 241 125 200 q 177 156 223 156 q 256 156 280 182 q 305 208 305 241 q 305 302 217 374 q 153 422 90 470 q 13 538 13 599 q 13 700 84 754 q 149 803 253 803 q 347 803 450 772 q 415 707 415 587 q 393 619 345 638 q 302 655 259 655 q 169 655 169 599 q 169 560 250 502 q 371 417 401 386 q 483 303 483 202 z"},"}":{"x_min":0,"x_max":333,"ha":333,"o":"m 306 299 l 306 219 q 268 218 244 198 q 221 179 213 146 q 205 112 204 30 q 204 -51 202 -77 q 197 -118 185 -142 q 173 -167 156 -182 q 138 -197 111 -205 q 92 -210 50 -210 l 23 -210 l 23 -134 l 38 -134 q 89 -134 106 -116 q 122 -97 122 -33 q 122 89 126 122 q 134 176 158 208 q 181 241 224 259 q 168 286 145 330 q 122 374 122 479 q 122 574 120 593 q 116 625 100 638 q 84 651 38 651 l 23 651 l 23 728 l 50 728 q 98 728 120 720 q 151 709 172 684 q 192 659 198 620 q 204 582 204 494 q 205 406 213 372 q 221 339 244 320 q 268 300 306 299 z"},"Z":{"x_min":0,"x_max":626,"ha":626,"o":"m 576 0 l 62 0 q 79 23 114 94 q 168 207 211 326 q 269 486 269 564 q 269 629 226 629 q 167 629 96 512 q 97 523 97 536 q 97 591 83 671 q 68 760 47 800 l 561 800 q 535 766 493 686 q 343 400 343 254 q 343 172 397 172 q 456 172 526 288 q 526 277 526 264 q 526 209 540 129 q 555 40 576 0 z"},"x":{"x_min":0,"x_max":490,"ha":490,"o":"m 450 0 l 276 0 q 285 12 285 24 q 285 44 253 75 q 206 121 205 122 q 184 151 184 168 q 184 180 190 197 q 142 151 142 122 q 142 83 178 55 q 219 24 224 0 l 65 0 q 28 49 28 91 q 28 132 69 178 q 107 219 146 259 q 187 311 187 364 q 187 384 182 403 q 174 434 132 461 q 66 506 59 512 q 20 547 17 600 l 191 600 q 182 588 182 576 q 182 555 214 524 q 261 479 261 478 q 283 449 283 432 q 283 419 277 403 q 325 448 325 478 q 325 516 289 544 q 248 576 243 600 l 402 600 q 439 550 439 509 q 439 468 398 422 q 359 381 321 340 q 280 289 280 236 q 280 216 285 197 q 292 166 334 138 q 401 94 408 88 q 446 52 450 0 z"},")":{"x_min":0,"x_max":333,"ha":333,"o":"m 124 -210 l 61 -210 q 207 24 207 259 q 207 351 186 441 q 169 514 139 582 q 120 625 61 728 l 124 728 q 215 605 259 482 q 297 375 297 259 q 297 127 246 4 q 196 -119 124 -210 z"},"&":{"x_min":0,"x_max":782,"ha":782,"o":"m 767 498 q 747 491 741 486 q 731 478 731 461 q 731 418 722 404 q 710 384 686 376 q 663 369 640 364 q 614 357 593 341 q 560 319 541 293 q 529 277 505 232 q 553 183 593 183 q 617 183 650 198 q 676 212 703 226 q 659 128 657 3 q 643 -3 616 -3 q 556 -3 494 22 q 420 53 405 101 q 382 53 338 22 q 294 -8 243 -8 q 138 -8 80 54 q 23 116 23 222 q 23 300 54 377 q 85 458 139 510 q 103 548 88 575 q 70 609 70 654 q 70 718 110 760 q 149 802 213 802 q 272 802 312 780 q 363 752 363 698 q 363 615 276 499 q 306 468 355 404 q 407 336 432 308 q 438 318 447 339 q 457 378 467 416 q 485 471 511 471 q 525 471 539 452 q 505 450 505 417 q 505 394 528 394 q 555 394 572 439 q 597 503 599 506 q 615 526 667 532 q 719 537 731 559 l 731 556 q 732 526 677 496 q 622 466 622 449 q 622 440 630 428 q 638 417 647 417 q 656 417 688 458 q 721 500 750 500 q 759 500 767 498 z m 265 678 q 265 698 244 715 q 224 732 203 732 q 182 732 167 708 q 155 688 155 666 q 155 619 201 570 q 265 637 265 678 z m 353 214 q 328 236 281 308 q 248 361 214 413 q 165 337 165 269 q 165 188 264 188 q 313 188 353 214 z"},"_":{"x_min":0,"x_max":556,"ha":556,"o":"m -15 -199 l -15 -135 l 567 -135 l 567 -199 z"},"v":{"x_min":0,"x_max":463,"ha":463,"o":"m 414 599 q 451 525 451 459 q 451 391 406 316 q 364 254 322 192 q 277 118 277 53 q 277 27 284 0 l 130 0 q 188 124 188 247 q 188 274 185 296 q 177 343 134 386 q 64 454 57 464 q 17 519 13 599 l 194 599 q 185 581 185 563 q 185 530 218 484 q 263 421 268 411 q 279 386 279 333 q 279 276 267 225 q 340 329 340 395 q 340 438 299 498 q 254 564 248 599 z"},"O":{"x_min":0,"x_max":571,"ha":571,"o":"m 543 393 q 543 305 520 226 q 492 133 437 71 q 369 -5 283 -5 q 196 -5 129 71 q 73 133 46 226 q 23 305 23 393 q 23 475 43 551 q 69 649 125 716 q 194 799 283 799 q 372 799 440 716 q 496 649 523 551 q 543 475 543 393 z m 359 391 q 359 456 352 515 q 332 690 283 690 q 234 690 213 515 q 207 456 207 391 q 207 327 213 268 q 234 93 283 93 q 332 93 352 268 q 359 327 359 391 z"},"(":{"x_min":0,"x_max":333,"ha":333,"o":"m 234 -210 q 161 -119 111 4 q 61 127 61 259 q 61 375 98 482 q 142 605 234 728 l 297 728 q 238 626 219 583 q 189 516 172 442 q 151 351 151 259 q 151 24 297 -210 z"},"C":{"x_min":0,"x_max":535,"ha":535,"o":"m 520 310 q 520 190 467 102 q 403 -4 291 -4 q 208 -4 145 78 q 95 143 72 237 q 53 311 53 394 q 53 476 72 552 q 95 647 145 714 q 208 800 291 800 l 481 800 q 472 776 459 739 q 436 666 436 585 q 365 682 311 682 q 258 682 234 591 q 218 532 218 459 q 218 394 228 341 q 239 284 276 251 q 313 218 370 218 q 418 218 458 243 q 499 268 520 310 z"},"W":{"x_min":0,"x_max":738,"ha":738,"o":"m 646 799 q 715 672 715 554 q 715 459 663 335 q 640 281 617 228 q 592 163 592 117 q 592 56 631 0 l 403 0 q 379 53 379 128 q 379 201 402 268 q 353 213 337 187 q 306 138 306 89 q 306 50 323 0 l 51 0 q 114 62 152 164 q 187 260 187 353 q 187 377 185 394 q 177 457 122 515 q 34 606 26 619 q -24 692 -24 799 l 218 799 q 203 774 203 747 q 203 697 271 615 q 289 593 294 586 q 305 570 311 553 q 322 523 322 482 q 322 428 304 368 q 338 409 350 430 q 369 465 369 504 q 369 555 336 624 l 385 624 q 429 624 468 628 q 514 553 514 489 q 514 444 496 368 q 559 449 559 553 q 559 571 558 584 q 553 623 499 688 q 448 750 448 786 q 448 792 450 799 z"},"A":{"x_min":0,"x_max":653,"ha":653,"o":"m 629 0 l 291 0 q 187 0 122 58 q 57 115 57 217 q 57 291 94 357 q 130 423 205 452 q 262 469 320 485 q 373 503 373 545 q 373 584 353 612 q 330 642 292 642 q 236 642 175 589 q 124 544 93 487 q 95 512 95 538 q 95 691 36 800 l 325 800 q 457 800 503 656 q 529 574 529 403 q 529 85 629 0 z m 369 403 q 308 386 271 347 q 229 304 229 244 q 229 212 244 185 q 261 152 291 152 q 343 152 360 201 q 370 230 370 295 q 370 313 370 349 q 369 385 369 403 z"},"f":{"x_min":0,"x_max":389,"ha":389,"o":"m 378 346 q 352 300 343 290 q 320 263 287 263 q 274 263 250 272 q 227 280 215 280 q 208 280 202 278 q 206 214 222 121 q 241 15 249 0 l 11 0 q 32 24 70 73 q 112 134 112 274 q 112 370 85 453 q 51 556 -14 599 l 372 599 q 352 552 352 445 q 352 409 356 383 q 294 471 250 471 q 200 471 200 337 l 200 332 q 224 343 242 343 q 254 343 278 335 q 302 327 318 327 q 336 327 378 346 z"},"Q":{"x_min":0,"x_max":585,"ha":585,"o":"m 1135 -33 q 1091 -59 1091 -86 q 1091 -100 1106 -124 q 1121 -149 1121 -165 q 1121 -197 1105 -227 q 1079 -276 1005 -302 q 945 -318 886 -334 q 827 -349 827 -376 q 827 -398 842 -398 q 851 -398 889 -379 q 927 -360 952 -360 q 969 -360 985 -367 q 936 -380 906 -413 q 875 -446 848 -453 q 808 -465 768 -465 q 662 -465 583 -374 q 525 -307 471 -172 q 431 -71 392 31 q 340 -5 283 -5 q 195 -5 128 72 q 71 136 44 231 q 23 307 23 393 q 23 478 44 556 q 71 652 127 718 q 195 799 283 799 q 371 799 439 718 q 494 652 521 556 q 543 478 543 393 q 543 246 483 136 q 506 89 554 -5 q 654 -200 792 -200 q 838 -200 875 -174 q 917 -146 917 -102 q 917 -62 878 -33 l 894 -33 q 942 -33 958 -39 q 988 -52 988 -94 q 988 -110 978 -140 q 967 -170 967 -185 q 967 -201 981 -201 q 987 -201 993 -199 q 1025 -189 1032 -146 q 1042 -83 1047 -72 q 1068 -35 1135 -33 z m 359 391 q 359 450 354 506 q 348 561 335 609 q 313 690 283 690 q 252 690 231 609 q 218 561 212 506 q 207 450 207 391 q 207 310 217 241 q 261 272 311 272 q 332 272 352 266 q 359 325 359 391 z m 327 148 q 297 189 270 189 q 251 189 231 171 q 253 93 284 93 q 307 93 327 148 z"},"w":{"x_min":0,"x_max":553,"ha":553,"o":"m 484 599 q 537 504 537 415 q 537 344 497 251 q 480 211 462 171 q 444 122 444 87 q 444 42 473 0 l 302 0 q 284 40 284 96 q 284 151 302 201 q 265 160 253 140 q 229 104 229 67 q 229 38 242 0 l 38 0 q 85 46 114 123 q 140 195 140 265 q 140 282 139 296 q 133 343 92 386 q 25 455 19 464 q -18 519 -18 599 l 163 599 q 153 580 153 560 q 153 523 203 461 q 215 448 233 414 q 241 392 241 361 q 241 321 228 276 q 277 335 277 378 q 277 416 252 468 l 289 468 q 322 468 351 471 q 385 415 385 367 q 385 333 372 276 q 420 337 420 415 q 420 428 418 438 q 415 468 376 515 q 336 562 336 589 q 336 594 337 599 z"},"-":{"x_min":0,"x_max":615,"ha":615,"o":"m 600 432 q 600 411 546 387 q 493 363 493 357 q 493 349 506 349 q 510 349 532 363 q 553 377 576 377 q 554 367 547 354 q 540 341 528 335 q 481 313 425 313 q 361 313 281 343 q 213 373 145 402 q 129 409 111 409 q 70 409 31 378 l 31 382 q 29 408 75 428 q 113 445 144 445 q 167 445 195 436 q 220 426 245 416 q 316 390 376 390 q 404 390 432 398 q 470 409 470 429 q 470 450 425 454 q 462 464 472 464 q 496 464 506 443 q 516 422 523 422 q 542 422 542 435 q 542 440 534 450 q 526 460 526 466 q 526 480 561 490 q 550 481 550 474 q 550 468 575 460 q 600 451 600 432 z"},"E":{"x_min":0,"x_max":549,"ha":549,"o":"m 526 438 q 526 423 237 277 q 268 185 348 185 q 400 185 449 224 q 494 258 519 309 q 519 189 465 101 q 402 -5 290 -5 q 205 -5 142 80 q 92 147 69 243 q 52 314 52 393 q 52 471 69 544 q 92 641 142 710 q 205 799 290 799 q 384 799 450 692 q 502 609 519 501 q 526 457 526 438 z m 357 526 q 357 558 352 587 q 347 620 333 649 q 314 690 290 690 q 263 690 243 621 q 230 579 225 531 q 220 491 220 449 z"},"s":{"x_min":0,"x_max":373,"ha":373,"o":"m 362 151 q 362 71 300 30 q 248 -5 163 -5 q 82 -5 28 22 q 44 100 44 180 q 44 200 43 216 q 58 181 96 149 q 133 117 168 117 q 192 117 210 136 q 229 156 229 181 q 229 227 162 280 q 115 316 67 352 q 10 403 10 449 q 10 525 63 566 q 111 603 190 603 q 260 603 338 579 q 311 530 311 440 q 295 464 260 478 q 226 491 194 491 q 127 491 127 449 q 127 420 188 377 q 278 313 301 289 q 362 227 362 151 z"},">":{"x_min":0,"x_max":583,"ha":583,"o":"m 529 313 l 55 110 l 55 198 l 430 354 l 55 508 l 55 595 l 529 395 z"},"l":{"x_min":0,"x_max":403,"ha":403,"o":"m 390 0 l 4 0 q 69 43 103 146 q 131 230 131 325 q 131 467 87 528 q 68 552 30 599 l 268 599 q 259 583 240 478 q 218 353 218 262 q 218 128 269 128 q 313 128 374 216 q 370 190 370 154 q 370 48 390 0 z"},"8":{"x_min":0,"x_max":571,"ha":571,"o":"m 283 -6 q 177 -6 101 60 q 22 129 22 234 q 22 335 84 394 q 48 428 48 503 q 48 630 116 711 q 189 799 313 799 q 486 799 513 563 q 517 529 517 504 q 517 427 482 394 q 543 335 543 234 q 543 129 464 60 q 389 -6 283 -6 z m 370 443 q 375 468 375 493 q 375 525 367 553 q 356 589 334 615 q 307 646 275 646 q 240 646 216 605 q 196 569 196 531 q 196 485 228 450 q 261 415 307 415 q 344 415 370 443 z m 380 220 q 380 266 348 302 q 315 337 269 337 q 231 337 206 308 q 201 283 201 259 q 201 227 209 198 q 219 163 242 137 q 269 105 301 105 q 336 105 359 147 q 380 183 380 220 z"},"\\":{"x_min":0,"x_max":690,"ha":690,"o":"m 675 16 q 665 0 643 0 q 596 0 525 63 q 483 100 457 163 q 436 220 416 277 q 340 489 240 567 q 209 591 188 591 q 165 591 165 565 q 165 537 193 492 q 151 529 142 540 q 116 570 116 602 q 116 612 123 628 q 130 645 130 653 q 130 663 120 674 q 109 684 98 684 q 88 684 84 652 q 80 619 66 619 q 49 619 15 648 q 25 645 31 645 q 45 645 45 658 q 45 671 34 695 q 24 719 24 732 q 24 774 55 774 q 82 774 145 734 q 208 693 218 693 q 226 693 226 702 q 226 723 202 735 q 181 743 161 751 q 136 765 117 791 q 146 774 161 774 q 166 774 174 776 q 181 778 185 778 q 195 778 210 769 q 304 712 370 601 q 421 515 465 378 q 499 265 533 151 q 566 47 675 16 z"},"e":{"x_min":0,"x_max":412,"ha":412,"o":"m 395 329 q 395 317 178 208 q 201 139 261 139 q 300 139 337 168 q 371 194 390 231 q 390 142 349 75 q 301 -4 217 -4 q 154 -4 107 60 q 69 110 52 182 q 39 235 39 294 q 39 353 52 408 q 69 480 106 533 q 154 599 217 599 q 288 599 338 519 q 376 457 389 376 q 395 343 395 329 z m 268 395 q 268 418 264 441 q 251 517 217 517 q 182 517 169 399 q 165 368 165 337 z"},"b":{"x_min":0,"x_max":464,"ha":464,"o":"m 442 206 q 442 146 427 108 q 384 0 177 0 l 4 0 q 59 44 87 150 q 109 232 109 324 q 109 468 82 523 q 74 540 35 599 l 273 599 q 332 599 376 573 q 427 541 427 486 q 427 412 316 324 q 325 325 334 325 q 384 325 413 292 q 442 258 442 206 z m 259 535 q 197 535 197 389 q 197 342 202 340 q 203 340 206 340 q 240 340 279 387 q 318 434 318 468 q 318 492 300 514 q 282 535 259 535 z m 316 206 q 316 268 269 268 q 236 268 212 240 q 188 212 188 179 q 188 95 229 95 q 262 95 290 135 q 316 172 316 206 z"},"%":{"x_min":0,"x_max":889,"ha":889,"o":"m 58 544 q 58 621 96 674 q 135 728 208 728 q 276 728 320 680 q 364 632 364 539 q 364 448 320 399 q 275 350 209 350 q 145 350 102 398 q 58 446 58 544 z m 211 667 q 178 667 156 639 q 135 611 135 535 q 135 466 157 438 q 179 410 211 410 q 244 410 266 438 q 288 467 288 542 q 288 611 266 639 q 244 667 211 667 z m 211 -26 l 603 728 l 674 728 l 284 -26 z m 521 168 q 521 245 560 298 q 598 352 672 352 q 739 352 784 304 q 828 256 828 163 q 828 72 783 23 q 738 -26 672 -26 q 607 -26 564 22 q 521 71 521 168 z m 674 292 q 641 292 620 264 q 598 235 598 159 q 598 91 620 62 q 642 34 674 34 q 708 34 730 62 q 751 91 751 166 q 751 235 729 264 q 707 292 674 292 z"},"m":{"x_min":0,"x_max":748,"ha":748,"o":"m 731 0 l 579 0 q 506 69 506 197 q 506 246 519 332 q 529 394 529 415 q 529 457 502 457 q 448 457 422 277 q 415 226 415 175 q 415 51 439 0 l 271 0 q 289 31 301 147 q 310 239 310 303 q 310 457 271 457 q 227 457 205 301 q 189 196 189 94 q 189 20 197 0 l -32 0 q 40 44 83 142 q 122 230 122 325 q 122 388 88 441 q 56 479 23 520 q -10 560 -10 599 l 171 599 q 160 582 160 559 q 160 549 162 539 q 261 605 342 605 q 415 605 424 547 q 542 610 586 610 q 600 610 630 599 q 674 583 674 522 q 674 474 654 403 q 636 344 619 286 q 609 250 609 220 q 609 131 689 44 q 703 30 731 0 z"},"#":{"x_min":0,"x_max":556,"ha":556,"o":"m 50 -12 l 93 196 l 10 196 l 10 269 l 107 269 l 144 446 l 10 446 l 10 519 l 158 519 l 201 728 l 274 728 l 231 519 l 385 519 l 428 728 l 501 728 l 459 519 l 543 519 l 543 446 l 444 446 l 408 269 l 543 269 l 543 196 l 393 196 l 351 -12 l 277 -12 l 319 196 l 166 196 l 124 -12 z m 181 269 l 334 269 l 371 446 l 217 446 z"},",":{"x_min":0,"x_max":290,"ha":290,"o":"m 246 71 q 246 2 196 -35 q 189 -40 102 -82 q 52 -106 53 -142 q 35 -112 35 -91 q 35 -63 74 -44 q 113 -25 113 -13 q 113 -11 112 -8 q 85 -8 68 14 q 50 36 50 64 q 50 107 86 145 q 122 183 165 183 q 215 183 233 149 q 246 124 246 71 z"},"n":{"x_min":0,"x_max":480,"ha":480,"o":"m 483 0 l 271 0 q 302 54 302 303 q 302 377 301 389 q 296 457 271 457 q 227 457 205 301 q 189 196 189 94 q 189 20 197 0 l -32 0 q 40 44 83 142 q 122 230 122 325 q 122 388 88 441 q 56 479 23 520 q -10 560 -10 599 l 171 599 q 160 582 160 559 q 160 549 162 539 q 261 605 342 605 q 426 605 426 522 q 426 456 379 286 q 369 250 369 220 q 369 124 439 46 q 454 31 483 0 z"},"h":{"x_min":0,"x_max":547,"ha":547,"o":"m 527 0 l 315 0 q 346 53 346 152 q 346 246 302 246 q 262 246 243 181 q 231 137 231 81 q 231 26 241 0 l 12 0 q 86 45 135 142 q 182 234 182 325 q 182 388 143 441 q 108 479 71 520 q 34 560 34 599 l 277 599 q 252 558 252 474 q 252 381 302 381 q 357 381 357 507 q 357 566 346 599 l 527 599 q 527 577 510 548 q 493 525 477 503 q 416 412 416 286 q 416 128 527 0 z"},"z":{"x_min":0,"x_max":469,"ha":469,"o":"m 432 0 l 46 0 q 59 17 85 71 q 126 155 158 245 q 202 364 202 423 q 202 472 169 472 q 125 472 72 384 q 73 393 73 402 q 73 443 62 503 q 51 570 35 600 l 421 600 q 401 575 370 514 q 258 300 258 190 q 258 129 298 129 q 342 129 395 216 q 394 207 394 198 q 394 157 405 97 q 416 30 432 0 z"},"B":{"x_min":0,"x_max":619,"ha":619,"o":"m 590 275 q 590 195 570 145 q 512 0 236 0 l 5 0 q 79 59 116 200 q 145 309 145 432 q 145 624 110 698 q 99 720 46 798 l 364 799 q 443 799 501 764 q 570 722 570 648 q 570 549 422 432 q 433 434 445 434 q 513 434 552 389 q 590 344 590 275 z m 346 713 q 297 713 276 636 q 263 587 263 519 q 263 456 269 453 q 271 453 275 453 q 319 453 372 517 q 424 578 424 624 q 424 656 400 684 q 377 713 346 713 z m 422 275 q 422 358 359 358 q 315 358 282 320 q 250 283 250 239 q 250 127 306 127 q 349 127 387 180 q 422 230 422 275 z"},"K":{"x_min":0,"x_max":677,"ha":677,"o":"m 662 799 q 662 755 604 698 q 545 642 487 588 q 419 517 404 448 q 429 453 449 453 q 514 453 538 393 q 550 364 558 278 q 567 178 579 130 q 600 51 649 0 l 404 0 q 430 50 430 158 q 430 214 420 257 q 404 328 366 328 q 313 328 283 217 q 262 137 262 62 q 262 22 269 0 l 5 0 q 93 62 149 194 q 200 316 200 433 q 200 517 156 587 q 115 639 74 691 q 30 747 30 799 l 311 799 q 295 770 283 703 q 273 644 273 602 q 273 523 307 523 q 321 523 348 549 q 389 589 414 647 q 440 705 440 761 q 440 780 437 799 z"},"R":{"x_min":0,"x_max":669,"ha":669,"o":"m 644 0 l 361 0 q 410 42 410 172 q 410 247 391 306 q 363 392 305 392 q 271 392 261 347 q 258 329 258 274 q 258 240 263 199 q 272 124 277 95 q 290 15 306 0 l 5 0 q 79 59 116 200 q 145 310 145 433 q 145 625 110 699 q 99 720 46 799 l 364 800 q 443 800 501 765 q 570 723 570 649 q 570 590 520 532 q 492 498 423 444 q 485 444 518 353 q 542 258 566 163 q 596 43 644 0 z m 346 714 q 297 714 276 636 q 263 587 263 520 q 263 457 269 454 q 271 454 275 454 q 318 454 362 517 q 404 577 404 625 q 404 660 391 685 q 375 714 346 714 z"},"T":{"x_min":0,"x_max":490,"ha":490,"o":"m 459 633 q 453 580 416 539 q 376 496 324 496 q 308 496 293 501 q 275 451 275 391 q 275 264 340 264 q 401 264 439 393 q 452 340 452 281 q 452 177 413 97 q 362 -5 269 -5 q 125 -5 125 239 q 125 290 134 392 q 144 493 144 544 q 144 752 1 799 q 89 799 131 797 q 351 786 351 683 q 351 647 327 598 q 348 594 366 594 q 411 594 459 633 z"},"P":{"x_min":0,"x_max":585,"ha":585,"o":"m 570 648 q 570 553 476 479 q 381 405 333 387 q 280 367 280 217 q 280 148 291 72 q 300 5 306 0 l 5 0 q 79 59 116 200 q 145 309 145 432 q 145 530 141 573 q 133 654 105 707 q 96 725 46 798 l 364 799 q 443 799 501 764 q 570 722 570 648 z m 346 713 q 290 713 290 603 q 290 585 292 556 q 293 527 293 519 q 293 453 299 453 q 343 453 386 523 q 424 585 424 624 q 424 656 400 684 q 377 713 346 713 z"},"|":{"x_min":0,"x_max":259,"ha":259,"o":"m 92 -210 l 92 728 l 168 728 l 168 -210 z"},"t":{"x_min":0,"x_max":367,"ha":367,"o":"m 344 475 q 340 435 311 404 q 282 372 243 372 q 231 372 220 376 q 206 338 206 294 q 206 198 255 198 q 301 198 329 294 q 339 255 339 211 q 339 133 309 73 q 272 -4 202 -4 q 94 -4 94 179 q 94 218 101 294 q 108 370 108 408 q 108 564 1 599 q 67 599 98 598 q 263 590 263 512 q 263 485 245 449 q 261 445 275 445 q 308 445 344 475 z"},"M":{"x_min":0,"x_max":998,"ha":998,"o":"m 974 0 l 773 0 q 675 92 675 263 q 675 328 693 443 q 705 526 705 553 q 705 609 669 609 q 598 609 563 370 q 553 302 553 233 q 553 68 585 0 l 361 0 q 385 41 401 197 q 413 318 413 404 q 413 609 361 609 q 301 609 272 392 q 253 254 253 125 q 253 26 263 0 l -43 0 q 54 58 111 189 q 163 307 163 433 q 163 518 117 587 q 75 639 32 691 q -14 747 -14 799 l 228 799 q 213 776 213 746 q 213 732 216 718 q 347 806 456 806 q 553 806 566 729 q 723 814 781 814 q 801 814 840 799 q 898 777 898 696 q 898 632 872 537 q 848 459 825 381 q 812 334 812 293 q 812 175 919 59 q 937 39 974 0 z"},"g":{"x_min":0,"x_max":506,"ha":506,"o":"m 254 599 l 451 599 z m 486 0 l 248 0 q 177 0 124 53 q 77 100 55 174 q 38 230 38 294 q 38 357 59 416 q 83 485 132 537 q 190 599 254 599 l 451 599 q 451 597 438 550 q 420 484 410 438 q 356 510 296 510 q 231 510 192 425 q 160 357 160 284 q 160 228 181 185 q 207 129 257 129 q 292 129 324 193 q 325 221 286 260 q 247 298 247 319 q 247 345 280 376 q 308 398 335 420 q 325 395 325 377 q 325 346 357 319 q 432 259 432 226 q 432 212 418 188 q 405 165 405 149 q 405 138 410 124 q 437 52 486 0 z"},"j":{"x_min":0,"x_max":376,"ha":376,"o":"m 364 599 q 344 576 306 526 q 263 465 263 325 q 263 296 270 238 q 276 180 276 151 q 276 0 142 0 l 4 0 q 24 48 24 154 q 24 191 20 216 q 81 128 125 128 q 176 128 176 262 q 176 353 154 478 q 135 583 126 599 z"},"i":{"x_min":0,"x_max":300,"ha":300,"o":"m 247 549 q 247 518 220 490 q 192 461 161 461 q 104 461 104 510 q 104 544 131 571 q 158 598 192 598 q 215 598 231 585 q 247 572 247 549 z m 279 0 l -16 0 q 103 78 103 202 q 103 221 96 256 q 89 292 89 310 q 89 365 137 396 q 146 401 196 417 q 231 429 247 455 q 247 427 219 386 q 189 341 184 318 q 178 285 178 243 q 178 171 200 109 q 227 36 279 0 z"},"y":{"x_min":0,"x_max":380,"ha":380,"o":"m 363 599 q 369 570 369 543 q 369 490 347 441 q 333 411 294 351 q 263 305 252 277 q 234 233 234 178 q 234 116 262 0 l 108 0 q 152 94 152 194 q 152 229 147 260 q 140 305 107 348 q 77 386 48 424 q 1 494 -13 599 l 147 599 q 138 569 138 524 q 138 476 150 425 q 167 353 200 353 q 239 353 239 468 q 239 549 221 599 z"},".":{"x_min":0,"x_max":246,"ha":246,"o":"m 231 118 q 231 73 195 37 q 159 1 114 1 q 83 1 62 18 q 40 36 40 66 q 40 108 76 146 q 113 183 155 183 q 231 183 231 118 z"},"p":{"x_min":0,"x_max":439,"ha":439,"o":"m 427 486 q 427 414 356 359 q 286 304 250 290 q 210 275 210 162 q 210 111 218 54 q 225 4 229 0 l 4 0 q 59 44 87 150 q 109 232 109 324 q 109 473 79 530 q 72 543 35 599 l 273 599 q 332 599 376 573 q 427 541 427 486 z m 259 535 q 217 535 217 452 q 217 439 218 417 q 220 395 220 389 q 220 340 224 340 q 257 340 289 393 q 318 439 318 468 q 318 492 300 514 q 282 535 259 535 z"},"X":{"x_min":0,"x_max":653,"ha":653,"o":"m 600 0 l 368 0 q 380 15 380 32 q 380 59 337 101 q 275 161 274 162 q 245 201 245 224 q 245 241 253 263 q 189 201 189 162 q 189 111 238 74 q 291 32 299 0 l 87 0 q 37 66 37 121 q 37 176 92 237 q 143 292 194 346 q 249 414 249 485 q 249 512 243 537 q 232 578 177 615 q 87 674 79 682 q 27 730 22 799 l 254 799 q 243 784 243 768 q 243 741 286 699 q 348 638 348 637 q 378 598 378 576 q 378 559 369 537 q 433 598 433 637 q 433 688 385 726 q 331 768 324 799 l 536 799 q 585 734 585 679 q 585 624 530 562 q 479 508 428 454 q 373 385 373 314 q 373 287 380 263 q 390 221 446 184 q 535 125 543 117 q 595 70 600 0 z"},"*":{"x_min":0,"x_max":389,"ha":389,"o":"m 31 584 l 54 654 q 131 626 167 606 q 157 695 157 728 l 228 728 q 226 680 216 607 q 267 632 332 654 l 354 584 q 292 564 232 557 q 262 531 316 465 l 258 423 q 229 462 191 528 q 155 459 127 423 l 70 465 q 126 535 151 557 q 88 569 31 584 z"},"Y":{"x_min":0,"x_max":507,"ha":507,"o":"m 484 799 q 492 760 492 725 q 492 654 462 588 q 444 547 391 468 q 350 406 336 370 q 312 311 312 238 q 312 155 349 0 l 144 0 q 203 125 203 258 q 203 305 196 347 q 186 406 143 463 q 103 514 63 565 q 1 659 -17 799 l 196 799 q 184 758 184 698 q 184 634 200 567 q 223 471 266 471 q 319 471 319 624 q 319 732 294 799 z"},"c":{"x_min":0,"x_max":402,"ha":402,"o":"m 390 232 q 390 143 350 76 q 302 -3 218 -3 q 156 -3 109 59 q 72 108 54 178 q 40 233 40 295 q 40 357 54 414 q 71 485 109 535 q 156 600 218 600 l 360 600 q 354 582 344 555 q 327 499 327 439 q 274 511 233 511 q 194 511 176 445 q 164 401 164 344 q 164 295 171 256 q 189 164 278 164 q 356 164 390 232 z"},"!":{"x_min":0,"x_max":427,"ha":427,"o":"m 412 800 q 254 696 254 531 q 254 494 264 448 q 272 412 272 387 q 272 313 208 273 q 196 265 129 244 q 82 228 61 193 q 61 231 98 285 q 138 346 145 376 q 153 420 153 476 q 153 572 123 655 q 87 753 19 800 z m 252 118 q 252 73 216 37 q 180 1 134 1 q 104 1 82 18 q 61 36 61 66 q 61 108 98 146 q 134 183 175 183 q 252 183 252 118 z"},"/":{"x_min":0,"x_max":672,"ha":672,"o":"m 657 648 q 623 619 607 619 q 592 619 588 652 q 585 684 574 684 q 564 684 553 674 q 542 663 542 653 q 542 645 549 628 q 556 612 556 602 q 556 570 531 540 q 521 529 480 492 q 507 537 507 565 q 507 591 485 591 q 463 591 432 567 q 332 489 256 277 q 236 220 216 163 q 189 100 147 63 q 76 0 29 0 q 8 0 -3 16 q 106 47 139 151 q 173 265 208 378 q 252 515 302 601 q 368 712 462 769 q 477 778 487 778 q 491 778 499 776 q 507 774 511 774 q 527 774 556 791 q 536 764 510 750 q 490 742 470 734 q 447 723 447 702 q 447 693 454 693 q 465 693 528 734 q 590 774 617 774 q 648 774 648 732 q 648 719 638 694 q 627 670 627 658 q 627 645 641 645 q 648 645 657 648 z"},"[":{"x_min":0,"x_max":277,"ha":277,"o":"m 68 -199 l 68 716 l 262 716 l 262 643 l 156 643 l 156 -126 l 262 -126 l 262 -199 z"},"6":{"x_min":0,"x_max":558,"ha":558,"o":"m 290 799 l 480 799 z m 527 358 q 527 222 477 122 q 413 -5 290 -5 q 206 -5 142 80 q 92 146 69 242 q 52 313 52 393 q 52 472 69 545 q 92 641 142 711 q 206 799 290 799 l 480 799 q 475 787 466 765 q 435 680 435 584 q 364 681 310 681 q 260 681 236 600 q 219 547 217 478 q 287 528 348 528 q 424 528 476 481 q 527 434 527 358 z m 395 298 q 395 344 362 379 q 330 414 284 414 q 246 414 221 386 q 226 336 257 271 q 294 191 333 191 q 359 191 379 233 q 395 267 395 298 z"},"r":{"x_min":0,"x_max":501,"ha":501,"o":"m 483 0 l 271 0 q 308 32 308 129 q 308 185 293 230 q 272 294 229 294 q 203 294 196 260 q 193 247 193 205 q 193 180 197 150 q 204 93 207 72 q 218 11 229 0 l 4 0 q 59 44 87 150 q 109 232 109 325 q 109 469 82 524 q 74 540 35 599 l 273 600 q 332 600 376 573 q 427 542 427 487 q 427 442 390 399 q 369 374 317 333 q 364 333 389 265 q 407 194 425 123 q 447 33 483 0 z m 259 536 q 197 536 197 390 q 197 343 202 341 q 203 340 206 340 q 239 340 272 388 q 303 433 303 469 q 303 536 259 536 z"},"2":{"x_min":0,"x_max":499,"ha":499,"o":"m 464 0 l -37 0 q 44 65 44 150 q 44 169 40 206 q 35 244 35 263 q 35 344 106 412 q 123 428 237 510 q 308 560 308 599 q 308 655 218 655 q 175 655 132 638 q 84 619 62 587 q 62 707 27 772 q 130 803 224 803 q 328 803 393 754 q 464 700 464 599 q 464 538 387 470 q 324 422 260 374 q 172 302 172 241 q 172 208 196 182 q 221 156 253 156 q 300 156 352 200 q 399 241 420 288 q 419 280 419 271 q 419 208 464 0 z"},"{":{"x_min":0,"x_max":333,"ha":333,"o":"m 28 299 q 65 300 89 319 q 113 338 120 372 q 128 406 128 488 q 129 569 132 595 q 136 636 148 661 q 160 686 178 700 q 195 715 223 723 q 241 728 283 728 l 311 728 l 311 651 l 295 651 q 245 651 228 633 q 211 615 211 551 q 211 423 206 390 q 197 337 176 309 q 155 281 109 259 q 163 236 187 190 q 211 144 211 39 q 211 -56 213 -74 q 217 -107 233 -120 q 249 -134 295 -134 l 311 -134 l 311 -210 l 283 -210 q 235 -210 214 -203 q 183 -191 162 -166 q 142 -141 136 -102 q 129 -64 128 24 q 128 112 120 146 q 113 179 89 198 q 65 218 28 219 z"},"9":{"x_min":0,"x_max":536,"ha":536,"o":"m 509 406 q 509 327 491 254 q 468 158 419 88 q 355 0 271 0 l 57 0 q 65 28 77 74 q 97 161 97 242 q 167 146 229 146 q 287 146 318 224 q 341 282 343 351 q 273 301 213 301 q 136 301 85 348 q 34 395 34 471 q 34 604 85 693 q 148 804 271 804 q 355 804 418 719 q 468 653 491 557 q 509 486 509 406 z m 271 0 l 81 0 z m 340 443 q 335 493 304 558 q 267 638 227 638 q 201 638 182 596 q 166 562 166 531 q 166 485 198 450 q 231 415 277 415 q 314 415 340 443 z"}," ":{"x_min":0,"x_max":338,"ha":338,"o":""},"I":{"x_min":0,"x_max":429,"ha":429,"o":"m 359 732 q 359 690 323 652 q 287 615 245 615 q 168 615 168 680 q 168 725 204 761 q 241 797 286 797 q 317 797 338 780 q 359 762 359 732 z m 402 0 l 9 0 q 167 105 167 270 q 167 306 157 353 q 149 389 149 413 q 149 487 212 527 q 224 535 291 557 q 338 572 359 607 q 359 570 323 515 q 282 454 276 424 q 267 380 267 324 q 267 228 297 145 q 333 47 402 0 z"},"H":{"x_min":0,"x_max":730,"ha":730,"o":"m 703 0 l 420 0 q 439 33 451 99 q 461 154 461 202 q 461 328 402 328 q 348 328 324 239 q 308 181 308 108 q 308 34 322 0 l 16 0 q 115 60 180 189 q 242 312 242 433 q 242 518 191 587 q 144 639 96 691 q 45 747 45 799 l 370 799 q 336 744 336 633 q 336 508 402 508 q 475 508 475 677 q 475 755 461 799 l 703 799 q 703 769 679 731 q 658 701 637 670 q 612 635 598 603 q 554 510 554 381 q 554 267 591 175 q 626 89 703 0 z"},"4":{"x_min":0,"x_max":673,"ha":673,"o":"m 644 0 l 361 0 q 381 33 392 99 q 403 154 403 202 q 403 328 343 328 l 163 328 q 183 367 183 433 q 183 516 145 586 q 110 639 76 691 q 38 748 38 799 l 311 799 q 277 745 277 633 q 277 508 343 508 q 417 508 417 677 q 417 755 402 799 l 644 799 q 623 782 599 740 q 518 593 518 401 q 518 180 644 0 z"},"~":{"x_min":0,"x_max":583,"ha":583,"o":"m 42 272 l 42 372 q 94 431 178 431 q 208 431 240 422 q 272 414 332 388 q 365 374 382 370 q 399 365 416 365 q 448 365 482 384 q 516 403 542 432 l 542 329 q 511 299 479 286 q 447 273 407 273 q 377 273 350 280 q 324 287 266 312 q 208 338 170 338 q 139 338 111 325 q 83 312 42 272 z"},"D":{"x_min":0,"x_max":643,"ha":643,"o":"m 615 392 q 615 304 591 227 q 561 130 499 69 q 428 0 335 0 l 18 0 q 94 81 136 213 q 174 331 174 455 q 174 565 141 638 q 137 647 94 712 q 63 757 64 792 l 64 799 l 327 799 q 412 799 490 716 q 555 646 587 555 q 615 476 615 392 z m 306 665 q 286 596 272 459 q 260 328 260 247 q 260 162 320 162 q 389 162 425 240 q 452 300 452 378 q 452 585 306 665 z"},"^":{"x_min":0,"x_max":469,"ha":469,"o":"m 117 337 l 26 337 l 199 728 l 270 728 l 443 337 l 354 337 l 234 628 z"},"0":{"x_min":0,"x_max":571,"ha":571,"o":""},"F":{"x_min":0,"x_max":519,"ha":519,"o":"m 504 461 q 469 400 458 387 q 426 350 382 350 q 365 350 334 362 q 303 374 286 374 q 277 374 269 371 q 274 286 296 161 q 321 20 333 0 l 15 0 q 42 31 93 97 q 130 149 142 226 q 150 276 150 366 q 150 493 113 604 q 68 741 -19 799 l 496 799 q 469 736 469 594 q 469 545 475 511 q 392 628 334 628 q 266 628 267 449 l 267 442 q 299 458 323 458 q 339 458 371 447 q 403 436 424 436 q 448 436 504 461 z"},"`":{"x_min":0,"x_max":295,"ha":295,"o":"m 207 677 q 242 642 230 547 q 224 558 216 567 q 198 584 148 594 q 98 604 79 623 q 61 641 60 689 q 60 737 38 753 q 88 767 98 756 q 103 752 106 732 q 109 713 119 703 q 131 691 162 690 q 194 690 207 677 z"},"k":{"x_min":0,"x_max":508,"ha":508,"o":"m 496 599 q 496 566 452 522 q 409 482 365 441 q 315 388 303 336 q 322 339 337 339 q 386 339 404 295 q 413 273 418 208 q 425 133 434 98 q 450 38 487 0 l 303 0 q 322 38 322 119 q 322 246 275 246 q 234 246 212 163 q 197 103 197 47 q 197 16 202 0 l 4 0 q 70 46 112 146 q 150 237 150 325 q 150 388 117 440 q 86 479 56 518 q 22 561 22 599 l 233 599 q 221 577 213 527 q 205 483 205 452 q 205 392 230 392 q 241 392 261 411 q 330 479 330 571 q 330 585 328 599 z"},"u":{"x_min":0,"x_max":518,"ha":518,"o":"m 518 600 q 444 555 396 460 q 349 366 349 275 q 349 212 387 159 q 422 120 458 81 q 496 39 496 0 l 315 0 q 326 17 326 41 q 326 51 324 61 q 225 -4 144 -4 q 60 -4 60 79 q 60 125 80 197 q 97 256 115 314 q 125 350 125 381 q 125 468 47 554 q 32 569 3 600 l 215 600 q 197 569 185 453 q 176 362 176 297 q 176 144 215 144 q 259 144 281 299 q 296 404 296 507 q 296 580 289 600 z"},"]":{"x_min":0,"x_max":277,"ha":277,"o":"m 213 -199 l 19 -199 l 19 -126 l 125 -126 l 125 643 l 19 643 l 19 716 l 213 716 z"},"U":{"x_min":0,"x_max":661,"ha":661,"o":"m 691 800 q 592 740 527 611 q 465 488 465 367 q 465 283 516 213 q 563 161 611 109 q 662 52 662 0 l 420 0 q 435 23 435 55 q 435 69 431 82 q 301 -6 192 -6 q 133 -6 106 20 q 80 46 80 105 q 80 167 106 263 q 130 341 153 419 q 166 467 166 508 q 166 624 62 738 q 42 759 4 800 l 287 800 q 263 759 247 604 q 235 482 235 396 q 235 191 287 191 q 347 191 376 408 q 395 547 395 676 q 395 774 385 800 z"},"o":{"x_min":0,"x_max":428,"ha":428,"o":"m 407 294 q 407 229 390 170 q 369 100 327 53 q 277 -4 212 -4 q 147 -4 97 53 q 55 100 34 170 q 17 229 17 294 q 17 356 32 413 q 52 486 94 537 q 146 599 212 599 q 279 599 330 537 q 372 486 392 413 q 407 356 407 294 z m 269 294 q 269 342 264 386 q 249 517 212 517 q 175 517 160 386 q 155 342 155 294 q 155 245 160 201 q 175 70 212 70 q 249 70 264 201 q 269 245 269 294 z"},"N":{"x_min":0,"x_max":633,"ha":633,"o":"m 644 0 l 361 0 q 403 72 403 404 q 403 502 402 518 q 394 609 361 609 q 301 609 272 392 q 253 254 253 125 q 253 27 263 0 l -43 0 q 54 58 111 189 q 163 307 163 433 q 163 518 117 587 q 75 639 32 691 q -14 747 -14 799 l 228 799 q 213 776 213 746 q 213 732 216 718 q 347 806 456 806 q 515 806 542 780 q 568 755 568 696 q 568 608 505 381 q 492 334 492 293 q 492 165 586 62 q 605 42 644 0 z"},"+":{"x_min":0,"x_max":583,"ha":583,"o":"m 250 116 l 250 312 l 56 312 l 56 394 l 250 394 l 250 589 l 333 589 l 333 394 l 528 394 l 528 312 l 333 312 l 333 116 z"},"G":{"x_min":0,"x_max":675,"ha":675,"o":"m 338 799 l 601 799 z m 648 0 l 331 0 q 236 0 165 71 q 102 133 73 232 q 51 307 51 392 q 51 476 79 555 q 111 646 176 716 q 254 799 338 799 l 601 799 q 601 796 584 733 q 560 645 547 584 q 475 680 395 680 q 309 680 256 567 q 213 476 213 378 q 213 304 241 246 q 276 172 342 172 q 389 172 433 257 q 433 294 381 346 q 329 397 329 426 q 329 460 374 501 q 410 530 446 560 q 433 527 433 502 q 433 461 477 426 q 576 345 576 301 q 576 283 558 251 q 540 219 540 198 q 540 184 547 165 q 582 70 648 0 z"},"q":{"x_min":0,"x_max":418,"ha":418,"o":"m 851 -25 q 818 -44 818 -64 q 818 -75 830 -94 q 841 -112 841 -124 q 841 -148 829 -170 q 809 -207 754 -227 q 709 -238 664 -250 q 620 -262 620 -282 q 620 -299 632 -299 q 638 -299 666 -284 q 695 -270 714 -270 q 727 -270 738 -275 q 702 -285 679 -310 q 656 -334 636 -340 q 606 -349 576 -349 q 496 -349 437 -280 q 394 -230 353 -129 q 323 -53 294 23 q 255 -4 212 -4 q 146 -4 96 54 q 54 102 33 173 q 17 231 17 294 q 17 358 33 417 q 53 489 95 538 q 146 599 212 599 q 278 599 329 538 q 371 489 391 417 q 407 358 407 294 q 407 184 362 102 q 380 67 415 -3 q 491 -150 594 -150 q 628 -150 656 -131 q 688 -109 688 -76 q 688 -46 658 -25 l 670 -25 q 707 -25 719 -30 q 741 -39 741 -70 q 741 -82 733 -104 q 725 -127 725 -139 q 725 -151 736 -151 q 741 -151 745 -149 q 769 -142 774 -109 q 781 -62 786 -54 q 801 -26 851 -25 z m 269 294 q 269 337 265 378 q 251 517 212 517 q 174 517 159 378 q 155 338 155 294 q 155 233 163 181 q 196 204 233 204 q 249 204 264 199 q 269 244 269 294 z m 245 111 q 223 142 202 142 q 189 142 174 128 q 190 70 213 70 q 231 70 245 111 z"},"d":{"x_min":0,"x_max":482,"ha":482,"o":"m 461 294 q 461 228 443 170 q 421 98 374 52 q 321 0 251 0 l 13 0 q 71 61 102 160 q 130 249 130 341 q 130 423 106 478 q 103 486 70 534 q 47 568 48 594 l 48 599 l 246 599 q 309 599 367 537 q 416 485 440 416 q 461 357 461 294 z m 230 499 q 215 447 205 346 q 195 246 195 186 q 195 121 240 121 q 292 121 319 180 q 339 225 339 284 q 339 439 230 499 z"},"1":{"x_min":0,"x_max":422,"ha":422,"o":"m 398 1 l 5 1 q 77 49 127 207 q 169 341 169 450 q 169 588 93 588 q 65 588 28 569 q 154 727 337 799 q 260 720 260 472 q 260 338 286 218 q 322 53 398 1 z"},"5":{"x_min":0,"x_max":489,"ha":489,"o":"m 469 201 q 469 100 398 45 q 333 -4 229 -4 q 135 -4 32 28 q 67 93 67 213 q 89 181 137 162 q 180 145 222 145 q 304 145 304 201 q 304 262 278 291 q 251 320 191 320 q 137 320 41 296 q 55 360 70 425 q 87 501 87 555 q 87 704 -32 800 l 469 800 q 420 572 425 512 q 399 571 360 613 q 310 668 257 668 q 183 668 183 495 q 183 403 183 407 q 235 432 281 432 q 362 432 418 355 q 469 285 469 201 z"}}}
